<?xml version="1.0" encoding="utf-8"?>
<!-- Generator: Adobe Illustrator 23.1.1, SVG Export Plug-In . SVG Version: 6.00 Build 0)  -->
<svg version="1.1" id="Layer_1" xmlns="http://www.w3.org/2000/svg" xmlns:xlink="http://www.w3.org/1999/xlink" x="0px" y="0px"
	 viewBox="0 0 822 575" style="enable-background:new 0 0 822 575;" xml:space="preserve">
<style type="text/css">
	.st0{fill:#010101;}
</style>
<g>
	<path class="st0" d="M306.6,255c0.8,6.5,5.2,12.4,16,11c8.3-1,15.7-4,19.4-9.5l-1.8-14.2c-6.4-0.3-13.9,0.1-20,0.9
		C309.6,244.5,305.9,249.3,306.6,255z"/>
	<path class="st0" d="M367.8,335.4c-13.1,1.6-18.6,12.4-16.1,32.4c2.2,17.8,8.2,31.2,24,29.3c15.8-2,19.1-13.8,16.6-33.9
		C390,345.2,383.1,333.5,367.8,335.4z"/>
	<path class="st0" d="M538.8,185.9c-1.1-8.8-8.8-11.7-17.8-10.6c-12.2,1.5-17.2,12.2-17.5,23.2l34.5-4.3
		C539,191.1,539.1,188.1,538.8,185.9z"/>
	<path class="st0" d="M742.9,89c-28.6-32.5-73.2-29.9-106.5-22.7c-32.5,7-64.5,10.3-106.4-11.9c-35.8-19-111.2-32.6-157.8-0.6
		c-25.8,17.7-48,38.2-76.4,51c-70.5,32-108.2,22.2-152.6,25c-66.9,4.2-113.4,73.3-68,160.4c12.1,21.3,39.2,39.7,46.5,63
		c10,32.3-0.5,45.3-3.8,75.6c-5.9,55.3,25.5,133.1,167.9,106c92.2-17.5,96.1-81.7,171.5-65.9c113.3,23.9,236.7,23.5,226.8-151.8
		c-3.2-55.9,49.9-82.8,74.7-137C767.9,160.1,769.9,119.7,742.9,89z M522,152.5c22.1-2.7,42.6,4.3,45.7,28.9
		c2.5,20.5-10.7,30.1-35.2,33.2c-10.4,1.3-22.9,1.5-28.1,0.1c2.2,17.8,12.6,24.3,30,22.1c13.3-1.7,24.5-6.9,33.6-13.1l10.9,19.5
		c-9.4,11.2-29.4,19.2-47.9,21.5c-34.3,4.2-54.3-11.6-58.5-45.2C468,183.5,484.7,157.2,522,152.5z M390.9,147.5l27-7.2
		c3.5,4.1,6.1,12.3,7.3,22.2l1,7.7l31.8-3.9l2.9,23.6c-2.4,3-8.8,6.1-18.5,7.3c-4.5,0.6-9.5,0.7-12.7,1.1L434,233
		c1.4,11.3,5.4,14.2,14.4,13.1c5.2-0.6,10.2-2.6,15.8-5.2l7.8,20.8c-9.6,7.6-20.3,11.7-33.6,13.3c-19.8,2.5-34.5-3.7-37.6-28.3
		l-5.4-44.4l-14.1-3.3l-2.7-21.6l15.5-4.4L390.9,147.5z M337.7,218.3c-1.2-9.7-4.2-15-20.6-13c-9,1.1-21.2,4.2-29.5,8.9l-8.9-18.1
		c9.4-11,26.3-16.8,39.3-18.4c33.1-4.1,46.8,6.5,50,32.2l5,41.9l11.7,0.4l2.9,23.2c-4.1,3.5-14.5,6.4-17.7,6.8
		c-10.1,1.3-17.5,0.8-23.6-9.6c-4.4,10.4-17.9,16.4-30.9,18c-19.9,2.6-35.6-6.2-38.4-29c-2.6-20.9,10.9-32.2,34.5-35.2
		c9-1.1,19.8-1.1,27.3,0.7L337.7,218.3z M164.5,256.4c-4.6-37.2,16.6-61.5,49.3-65.6c19.1-2.4,41.8-0.6,44.4,20.6
		c1,7.7-0.3,12.6-1.6,16.7l-23,4.5l-7.3-14.2c-2-1.1-6.1-1.1-10.8-0.5c-10.1,1.3-21.5,9.5-18.9,30.5c2,15.8,9.9,27.8,30.1,25.3
		c14-1.7,27.2-7.7,36-14.1l10.4,21.1c-8.3,10.4-26.3,18.8-49.7,21.7C189.7,306.6,168.7,290.6,164.5,256.4z M269.1,434.8
		c-33.7,4.2-54.6-11.8-58.9-46c-4.6-37.2,16.6-61.5,49.3-65.6c19.1-2.4,41.8-0.6,44.4,20.6c1,7.7-0.3,12.6-1.6,16.7l-23,4.5
		l-7.3-14.2c-2-1.1-6.1-1.1-10.8-0.5c-10.1,1.3-21.5,9.5-18.9,30.5c2,15.8,9.9,27.8,30.1,25.3c14-1.7,27.2-7.7,36-14.1l10.4,21.1
		C310.5,423.5,292.5,431.9,269.1,434.8z M375.1,421.7c-28.4,3.4-52.5-10-56.9-45.6c-4.3-34.9,11.6-61.1,50.1-65.9
		c33.8-4.2,53.5,13,57.5,45C430.7,394.4,412.4,417,375.1,421.7z M589.8,373.7C586,387,580,394.4,567,396c-8.1,1-13.1-0.7-19.2-7
		c-8.3-8.1-20-33.7-28.4-58.9l-0.9,0.1c-1.4,19.8-3.4,44.3-6.4,55.5c-3.3,12.1-7.6,18.3-22.4,20.2c-9.7,1.2-16.2-1.2-22.2-9.4
		c-5.8-8.3-14.2-30.3-21.2-45.5c-4.8-10.8-8.5-17-12.4-17l-3.4-27c2.3-1.4,7.2-3.2,11.7-3.7c9.2-1.1,16.5,1.8,21.6,8.3
		c8.8,9.9,16.6,41.8,24.3,68.6l0.7-0.1c1.3-15.3,4.6-47.7,6.6-61.2c1.5-11.6,7-18.9,18.7-20.4c8.1-1,14.5,0.7,20,7.8
		c6.6,9.2,21,43.8,28.8,64.6l0.7-0.1c1.8-16.5,2.4-50.8,0.4-66.8c-0.6-4.7-1.2-9.7-2-14.2l25.7-3.2c4.3,3.1,7.7,10,8.9,20.4
		C598.4,321.4,594.7,354.1,589.8,373.7z M657.6,174.8c-3.3-0.5-6.7-0.5-9.2-0.2c-14.2,1.8-20.1,13.2-22.5,23.2l6.3,50.5l-30.4,3.8
		c-2.1-3.1-5-9.6-7.1-26.7l-5.8-46.4l-12.3-1.4l-3.2-25.7c0,0,7.9-4.2,16.5-5.3c17.8-2.2,25.4,7.8,27.3,22.9l0.4-0.1
		c-0.1-15.8,10-28,22.4-29.5c7.2-0.9,13.5-0.3,18.2,3L657.6,174.8z"/>
</g>
</svg>
